HIERARCHY
ROOT Hips
{
	OFFSET -0.001795 -0.223333 0.028219
	CHANNELS 6 Xposition Yposition Zposition Zrotation Yrotation Xrotation 
	JOINT LeftUpLeg
	{
		OFFSET 0.069520 -0.091406 -0.006815
		CHANNELS 3 Zrotation Yrotation Xrotation
		JOINT LeftLeg
		{
			OFFSET 0.034277 -0.375199 -0.004496
			CHANNELS 3 Zrotation Yrotation Xrotation
			JOINT LeftFoot
			{
				OFFSET -0.013596 -0.397961 -0.043693
				CHANNELS 3 Zrotation Yrotation Xrotation
				JOINT LeftToe
				{
					OFFSET 0.026358 -0.055791 0.119288
					CHANNELS 3 Zrotation Yrotation Xrotation
					End Site
					{
						OFFSET 0.000000 0.000000 0.000000
					}
				}
			}
		}
	}
	JOINT RightUpLeg
	{
		OFFSET -0.067670 -0.090522 -0.004320
		CHANNELS 3 Zrotation Yrotation Xrotation
		JOINT RightLeg
		{
			OFFSET -0.038290 -0.382569 -0.008850
			CHANNELS 3 Zrotation Yrotation Xrotation
			JOINT RightFoot
			{
				OFFSET 0.015774 -0.398415 -0.042312
				CHANNELS 3 Zrotation Yrotation Xrotation
				JOINT RightToe
				{
					OFFSET -0.025372 -0.048144 0.123348
					CHANNELS 3 Zrotation Yrotation Xrotation
					End Site
					{
						OFFSET 0.000000 0.000000 0.000000
					}
				}
			}
		}
	}
	JOINT Spine
	{
		OFFSET -0.002533 0.108963 -0.026696
		CHANNELS 3 Zrotation Yrotation Xrotation
		JOINT Spine1
		{
			OFFSET 0.005487 0.135180 0.001092
			CHANNELS 3 Zrotation Yrotation Xrotation
			JOINT Spine2
			{
				OFFSET 0.001457 0.052922 0.025425
				CHANNELS 3 Zrotation Yrotation Xrotation
				JOINT Neck
				{
					OFFSET -0.002778 0.213870 -0.042857
					CHANNELS 3 Zrotation Yrotation Xrotation
					JOINT Head
					{
						OFFSET 0.005152 0.064970 0.051349
						CHANNELS 3 Zrotation Yrotation Xrotation
						End Site
						{
							OFFSET 0.000000 0.000000 0.000000
						}
					}
				}
				JOINT LeftShoulder
				{
					OFFSET 0.078845 0.121749 -0.034090
					CHANNELS 3 Zrotation Yrotation Xrotation
					JOINT LeftArm
					{
						OFFSET 0.090977 0.030469 -0.008868
						CHANNELS 3 Zrotation Yrotation Xrotation
						JOINT LeftForeArm
						{
							OFFSET 0.259612 -0.012772 -0.027456
							CHANNELS 3 Zrotation Yrotation Xrotation
							JOINT LeftHand
							{
								OFFSET 0.249234 0.008986 -0.001171
								CHANNELS 3 Zrotation Yrotation Xrotation
								End Site
								{
									OFFSET 0.000000 0.000000 0.000000
								}
							}
						}
					}
				}
				JOINT RightShoulder
				{
					OFFSET -0.081759 0.118833 -0.038615
					CHANNELS 3 Zrotation Yrotation Xrotation
					JOINT RightArm
					{
						OFFSET -0.096012 0.032551 -0.009143
						CHANNELS 3 Zrotation Yrotation Xrotation
						JOINT RightForeArm
						{
							OFFSET -0.253742 -0.013329 -0.021401
							CHANNELS 3 Zrotation Yrotation Xrotation
							JOINT RightHand
							{
								OFFSET -0.255298 0.007772 -0.005559
								CHANNELS 3 Zrotation Yrotation Xrotation
								End Site
								{
									OFFSET 0.000000 0.000000 0.000000
								}
							}
						}
					}
				}
			}
		}
	}
}
MOTION
Frames: 6
Frame Time: 0.050000
0.000000 0.937895 0.000000 -0.559880 -1.238397 7.989922 6.148667 -0.349129 -4.369409 -2.131712 0.195099 2.698960 14.402464 25.895588 20.184418 0.000000 0.000000 0.000000 -5.201560 0.668134 -7.750999 -1.359768 -0.125132 -5.090513 16.530166 24.184934 16.270028 0.000000 0.000000 0.000000 5.475941 0.303830 -5.582282 -1.762241 0.849781 -4.712032 -3.532703 3.599629 7.146050 5.304473 -2.253101 -12.495213 0.000000 0.000000 0.000000 -15.522372 -0.480394 -1.873125 -56.396956 -5.083536 -4.496176 -5.040309 -15.163125 1.164634 0.000000 0.000000 0.000000 13.653952 -6.790424 -3.937012 64.324510 4.546488 -3.697535 1.896885 18.954555 1.061905 0.000000 0.000000 0.000000 
-0.000145 0.937459 0.000237 -0.693222 -2.163414 8.740708 5.973554 -0.336972 -3.997237 -1.842223 0.188776 0.949058 14.951297 26.475524 20.683795 0.000000 0.000000 0.000000 -5.232794 0.755637 -8.942361 -1.153937 -0.120380 -4.727083 16.984407 24.720964 16.562954 0.000000 0.000000 0.000000 6.705015 0.365760 -6.103859 -2.588181 1.180611 -5.257756 -4.192848 4.109055 7.006227 4.929522 -1.936872 -12.879849 0.000000 0.000000 0.000000 -16.413831 0.094295 -2.306646 -55.806313 -4.979564 -4.445454 -4.046685 -15.105722 1.029201 0.000000 0.000000 0.000000 13.191608 -7.924287 -4.430071 65.506579 3.545780 -4.239608 2.266991 18.993945 1.121543 0.000000 0.000000 0.000000 
-0.000261 0.937293 0.000252 -0.290812 -1.738183 8.664455 5.664035 -0.352150 -4.237412 -1.921099 0.190056 1.340687 14.670666 26.174661 20.459014 0.000000 0.000000 0.000000 -5.457677 0.753073 -9.152873 -1.506087 -0.064049 -4.045683 16.515070 24.593589 15.790323 0.000000 0.000000 0.000000 6.182528 0.329490 -5.846125 -2.106487 0.987232 -6.203355 -4.656747 3.518039 7.463467 4.467338 -1.698489 -12.673732 0.000000 0.000000 0.000000 -16.163060 -0.565732 -1.865644 -56.176090 -5.185165 -4.444471 -3.164877 -14.097703 0.865070 0.000000 0.000000 0.000000 14.126107 -6.871317 -4.064775 64.511640 3.402616 -4.389987 1.806708 19.181923 1.059302 0.000000 0.000000 0.000000 
-0.000496 0.937407 0.000268 -0.239456 -1.742266 9.051590 5.647334 -0.369907 -4.525299 -1.960248 0.198291 1.091800 14.668826 26.159523 20.583499 0.000000 0.000000 0.000000 -5.636183 0.812223 -10.261347 -1.293876 -0.015458 -2.809113 16.359808 24.598111 15.499362 0.000000 0.000000 0.000000 6.343994 0.335009 -5.962295 -2.532009 1.159510 -5.870131 -4.280420 2.737306 6.524327 3.669079 -1.326109 -11.965365 0.000000 0.000000 0.000000 -16.489678 -0.136167 -1.975671 -56.552167 -5.660333 -4.149221 -1.760855 -13.551813 0.681949 0.000000 0.000000 0.000000 13.048567 -7.035150 -4.150362 65.118154 3.039744 -4.548031 2.511233 19.640687 1.155608 0.000000 0.000000 0.000000 
-0.000827 0.937887 0.000171 -0.112011 -1.052431 8.977324 5.433853 -0.379623 -4.564423 -1.576858 0.150257 1.058668 14.220694 25.655394 20.415453 0.000000 0.000000 0.000000 -5.516349 0.806334 -10.286015 -1.652673 0.037029 -2.367771 15.907707 24.168799 15.075464 0.000000 0.000000 0.000000 5.952938 0.296570 -5.662516 -2.054498 0.974581 -5.897822 -4.387497 2.121303 6.373393 3.125777 -0.922649 -12.500721 0.000000 0.000000 0.000000 -16.689950 -0.229732 -1.917647 -56.607121 -6.503326 -3.737603 -2.134304 -13.060853 0.701400 0.000000 0.000000 0.000000 13.117695 -7.079315 -4.213370 64.839673 2.940476 -4.587403 2.573008 19.696964 1.160205 0.000000 0.000000 0.000000 
-0.001158 0.938426 0.000127 -0.089554 -0.918576 9.136393 5.282130 -0.394559 -4.800005 -1.274334 0.113057 1.107070 14.123742 25.527361 20.574322 0.000000 0.000000 0.000000 -5.415288 0.821464 -10.489831 -1.832195 0.057090 -2.270093 15.854690 24.013424 15.151202 0.000000 0.000000 0.000000 5.859580 0.300006 -5.750212 -2.013334 0.959912 -6.020802 -4.093016 1.771902 6.413614 2.755328 -0.716771 -12.457139 0.000000 0.000000 0.000000 -16.896854 -0.087046 -1.942965 -56.624559 -6.881010 -3.558472 -2.218125 -13.059631 0.717329 0.000000 0.000000 0.000000 12.669859 -7.001948 -4.161803 65.061447 2.548351 -4.835564 2.727820 20.175016 1.203797 0.000000 0.000000 0.000000 
